<mxfile host="drawio-plugin" modified="2023-01-21T16:52:27.167Z" agent="5.0 (X11; Linux x86_64) AppleWebKit/537.36 (KHTML, like Gecko) Chrome/104.0.5112.102 Safari/537.36" version="20.5.3" etag="i_KYfgbCfcJ0-Ax4ZPTv" type="embed"><diagram id="Igeh7-QrYXrBeCA00I-L" name="Page-1"><mxGraphModel dx="623" dy="1680" grid="1" gridSize="10" guides="1" tooltips="1" connect="1" arrows="1" fold="1" page="1" pageScale="1" pageWidth="850" pageHeight="1100" background="#F4F1DE" math="0" shadow="0"><root><mxCell id="0"/><mxCell id="1" parent="0"/><mxCell id="2" value="Conta" style="rounded=0;whiteSpace=wrap;html=1;fillColor=#F2CC8F;strokeColor=#E07A5F;fontColor=#393C56;" vertex="1" parent="1"><mxGeometry x="250" y="-10" width="110" height="30" as="geometry"/></mxCell><mxCell id="4" value="Conta Corrente" style="rounded=0;whiteSpace=wrap;html=1;fillColor=#F2CC8F;strokeColor=#E07A5F;fontColor=#393C56;" vertex="1" parent="1"><mxGeometry x="130" y="70" width="110" height="30" as="geometry"/></mxCell><mxCell id="5" value="" style="endArrow=none;html=1;rounded=0;labelBackgroundColor=#F4F1DE;strokeColor=#E07A5F;fontColor=#393C56;" edge="1" parent="1"><mxGeometry width="50" height="50" relative="1" as="geometry"><mxPoint x="200" y="70" as="sourcePoint"/><mxPoint x="250" y="20" as="targetPoint"/></mxGeometry></mxCell><mxCell id="6" value="" style="endArrow=none;html=1;rounded=0;labelBackgroundColor=#F4F1DE;strokeColor=#E07A5F;fontColor=#393C56;" edge="1" parent="1"><mxGeometry width="50" height="50" relative="1" as="geometry"><mxPoint x="304.5" y="80" as="sourcePoint"/><mxPoint x="304.5" y="20" as="targetPoint"/></mxGeometry></mxCell><mxCell id="7" value="Conta Poupança" style="rounded=0;whiteSpace=wrap;html=1;fillColor=#F2CC8F;strokeColor=#E07A5F;fontColor=#393C56;" vertex="1" parent="1"><mxGeometry x="250" y="70" width="110" height="30" as="geometry"/></mxCell><mxCell id="8" value="" style="endArrow=none;html=1;rounded=0;labelBackgroundColor=#F4F1DE;strokeColor=#E07A5F;fontColor=#393C56;" edge="1" parent="1"><mxGeometry width="50" height="50" relative="1" as="geometry"><mxPoint x="360" y="20" as="sourcePoint"/><mxPoint x="420" y="70" as="targetPoint"/></mxGeometry></mxCell><mxCell id="9" value="Conta Salario" style="rounded=0;whiteSpace=wrap;html=1;fillColor=#F2CC8F;strokeColor=#E07A5F;fontColor=#393C56;" vertex="1" parent="1"><mxGeometry x="370" y="70" width="110" height="30" as="geometry"/></mxCell></root></mxGraphModel></diagram></mxfile>